<svg width="56" height="56" viewBox="0 0 56 56" fill="none" xmlns="http://www.w3.org/2000/svg">
<path fill-rule="evenodd" clip-rule="evenodd" d="M44.4929 11.2105C31.9359 8.26315 24.0641 8.26316 11.5071 11.2105C10.6271 11.4171 10 12.212 10 13.1313V45C10 46.1046 10.8954 47 12 47H44C45.1046 47 46 46.1046 46 45V13.1314C46 12.212 45.3729 11.4171 44.4929 11.2105ZM11.05 9.26345C23.9077 6.24552 32.0923 6.24552 44.95 9.26345C46.7489 9.68569 48 11.299 48 13.1314V45C48 47.2091 46.2091 49 44 49H12C9.79086 49 8 47.2091 8 45V13.1313C8 11.299 9.25115 9.68569 11.05 9.26345Z" fill="#FF902B"/>
<path fill-rule="evenodd" clip-rule="evenodd" d="M12 14C12 12.8954 12.8954 12 14 12H26C27.1046 12 28 12.8954 28 14V21C28 22.1046 27.1046 23 26 23H14C12.8954 23 12 22.1046 12 21V14ZM26 14H14V21H26V14Z" fill="#FF902B"/>
<path fill-rule="evenodd" clip-rule="evenodd" d="M8 30H17.5C18.8807 30 20 31.1193 20 32.5C20 33.8807 18.8807 35 17.5 35H8V30ZM10 32V33H17.5C17.7761 33 18 32.7761 18 32.5C18 32.2239 17.7761 32 17.5 32H10Z" fill="#FF902B"/>
<path fill-rule="evenodd" clip-rule="evenodd" d="M8 33H17.5C18.8807 33 20 34.1193 20 35.5C20 36.8807 18.8807 38 17.5 38H8V33ZM10 35V36H17.5C17.7761 36 18 35.7761 18 35.5C18 35.2239 17.7761 35 17.5 35H10Z" fill="#FF902B"/>
<path fill-rule="evenodd" clip-rule="evenodd" d="M9.07915 24.0031L9.20907 24.0133C9.29494 24.02 9.42209 24.0298 9.5867 24.0423C9.91593 24.0673 10.395 24.103 10.9932 24.1459C12.1898 24.2317 13.8629 24.3461 15.7678 24.4605C19.5833 24.6896 24.3086 24.9174 28 24.9174C31.6914 24.9174 36.4167 24.6896 40.2322 24.4605C42.1371 24.3461 43.8102 24.2317 45.0068 24.1459C45.605 24.103 46.0841 24.0673 46.4133 24.0423C46.5779 24.0298 46.7051 24.02 46.7909 24.0133L46.9204 24.0032L48 23.9174V45C48 47.2091 46.2091 49 44 49H12C9.79086 49 8 47.2091 8 45V23.9174L9.07915 24.0031ZM46 26.0789C45.7531 26.0971 45.4682 26.1179 45.1498 26.1408C43.9473 26.227 42.2664 26.3419 40.3521 26.4569C36.529 26.6865 31.7543 26.9174 28 26.9174C24.2457 26.9174 19.471 26.6865 15.6479 26.4569C13.7336 26.3419 12.0527 26.227 10.8502 26.1408C10.5318 26.1179 10.2469 26.0971 10 26.0789V45C10 46.1046 10.8954 47 12 47H44C45.1046 47 46 46.1046 46 45V26.0789Z" fill="#FF902B"/>
<path fill-rule="evenodd" clip-rule="evenodd" d="M15.5 41C14.6716 41 14 41.6716 14 42.5C14 43.3284 14.6716 44 15.5 44C16.3284 44 17 43.3284 17 42.5C17 41.6716 16.3284 41 15.5 41ZM12 42.5C12 40.567 13.567 39 15.5 39C17.433 39 19 40.567 19 42.5C19 44.433 17.433 46 15.5 46C13.567 46 12 44.433 12 42.5Z" fill="#FF902B"/>
<path fill-rule="evenodd" clip-rule="evenodd" d="M39 14C36.7909 14 35 15.7909 35 18C35 20.2091 36.7909 22 39 22C41.2091 22 43 20.2091 43 18C43 15.7909 41.2091 14 39 14ZM33 18C33 14.6863 35.6863 12 39 12C42.3137 12 45 14.6863 45 18C45 21.3137 42.3137 24 39 24C35.6863 24 33 21.3137 33 18Z" fill="#FF902B"/>
<path fill-rule="evenodd" clip-rule="evenodd" d="M30 16.5C30 15.1193 31.1193 14 32.5 14H48V19H32.5C31.1193 19 30 17.8807 30 16.5ZM32.5 16C32.2239 16 32 16.2239 32 16.5C32 16.7761 32.2239 17 32.5 17H46V16H32.5Z" fill="#FF902B"/>
<path fill-rule="evenodd" clip-rule="evenodd" d="M30 19.5C30 18.1193 31.1193 17 32.5 17H48V22H32.5C31.1193 22 30 20.8807 30 19.5ZM32.5 19C32.2239 19 32 19.2239 32 19.5C32 19.7761 32.2239 20 32.5 20H46V19H32.5Z" fill="#FF902B"/>
<path d="M13 31H15V34H13V31Z" fill="#FF902B"/>
<path d="M13 34H15V37H13V34Z" fill="#FF902B"/>
<path d="M22 26H24V49H22V26Z" fill="#FF902B"/>
</svg>
